<svg viewBox="0 0 24 24" height="16" width="16" stroke-width="1.5px" xmlns="http://www.w3.org/2000/svg"><path d="M17,.58V4.5a1,1,0,0,0,1,1h3.92" fill="none" stroke="#d7e6e1" stroke-linecap="round" stroke-linejoin="round"></path><path d="M5,12.5V1.5a1,1,0,0,1,1-1H16.586a1,1,0,0,1,.707.293l4.414,4.414A1,1,0,0,1,22,5.914V20.5a1,1,0,0,1-1,1H16" fill="none" stroke="#d7e6e1" stroke-linecap="round" stroke-linejoin="round"></path><path d="M8 5.5L14.5 5.5" fill="none" stroke="#d7e6e1" stroke-linecap="round" stroke-linejoin="round"></path><path d="M8 5.5L14.5 5.5" fill="none" stroke="#d7e6e1" stroke-linecap="round" stroke-linejoin="round"></path><path d="M8 8.5L15.5 8.5" fill="none" stroke="#d7e6e1" stroke-linecap="round" stroke-linejoin="round"></path><path d="M8 11.5L18.5 11.5" fill="none" stroke="#d7e6e1" stroke-linecap="round" stroke-linejoin="round"></path><path d="M15,14.5H8a1,1,0,0,1-.8-.4l-.9-1.2a1,1,0,0,0-.8-.4H3a1,1,0,0,0-1,1v9a1,1,0,0,0,1,1H15a1,1,0,0,0,1-1v-7A1,1,0,0,0,15,14.5Z" fill="none" stroke="#d7e6e1" stroke-linecap="round" stroke-linejoin="round"></path></svg>